<svg width="27" height="28" viewBox="0 0 27 28" fill="none" xmlns="http://www.w3.org/2000/svg">
<g id="Add Photo" opacity="0.8">
<path id="Rectangle 81" d="M14.625 5.28125H9.3C7.61984 5.28125 6.77976 5.28125 6.13803 5.60823C5.57354 5.89585 5.1146 6.35479 4.82698 6.91928C4.5 7.56101 4.5 8.40109 4.5 10.0812V18.4812C4.5 20.1614 4.5 21.0015 4.82698 21.6432C5.1146 22.2077 5.57354 22.6666 6.13803 22.9543C6.77976 23.2812 7.61984 23.2812 9.3 23.2812H17.7C19.3802 23.2812 20.2202 23.2812 20.862 22.9543C21.4265 22.6666 21.8854 22.2077 22.173 21.6432C22.5 21.0015 22.5 20.1614 22.5 18.4813V13.1562" stroke="#16293F" stroke-width="1.5" stroke-linecap="round" stroke-linejoin="round"/>
<path id="Vector 173" d="M4.5 18.7813L9.41789 13.8634C9.80842 13.4728 10.4416 13.4728 10.8321 13.8634L14.625 17.6563M14.625 17.6563L17.8554 14.4259C18.246 14.0353 18.8791 14.0353 19.2696 14.4259L22.5 17.6563M14.625 17.6563L17.1562 20.1875" stroke="#16293F" stroke-width="1.5" stroke-linecap="round" stroke-linejoin="round"/>
<path id="Vector 93" d="M20.8125 4.15625V6.96875M20.8125 9.78125V6.96875M20.8125 6.96875H18M20.8125 6.96875H23.625" stroke="#16293F" stroke-width="1.5" stroke-linecap="round" stroke-linejoin="round"/>
</g>
</svg>
