<svg width="122" height="28" viewBox="0 0 122 28" fill="none" xmlns="http://www.w3.org/2000/svg">
<g clip-path="url(#clip0_2702_329)">
<path d="M48.7693 15.2332L42.9926 8.06189H40.6152L47.5695 16.6948L44.8589 20.0521H47.2585L56.9234 8.06189H54.546L48.7693 15.2332Z" fill="#16293F"/>
<path d="M66.7663 8.06186H59.501V20.0521H61.4784V16.7633H66.7663C71.0766 16.7633 71.9876 14.411 71.9876 12.424C71.9876 10.4371 71.0766 8.06186 66.7663 8.06186ZM66.7663 14.8906H61.4784V9.93462H66.7663C69.6769 9.93462 70.0102 11.3506 70.0102 12.424C70.0102 13.4746 69.6769 14.8906 66.7663 14.8906Z" fill="#16293F"/>
<path d="M83.2517 12.0358H77.1639V9.91182H86.7622V8.03906H75.1865V20.0293H83.2517C87.1621 20.0293 87.9842 17.8596 87.9842 16.0325C87.9842 14.2283 87.1621 12.0358 83.2517 12.0358ZM77.1639 13.8172H83.1851C85.7179 13.8172 86.0068 15.0962 86.0068 16.0325C86.0068 16.9918 85.7179 18.2479 83.1851 18.2479H77.1639V13.8172Z" fill="#16293F"/>
<path d="M96.7158 8.06186L89.6948 20.0521H91.8944L93.5608 17.2429H101.737L103.403 20.0521H105.603L98.5821 8.06186H96.7158ZM94.6717 15.393L97.6489 10.4142L100.626 15.393H94.6717Z" fill="#16293F"/>
<path d="M120.023 13.1092H110.313V8.06186H108.336V20.0521H110.313V15.0276H120.023V20.0521H122V8.06186H120.023V13.1092Z" fill="#16293F"/>
<path d="M13.9882 28C21.7137 28 27.9765 21.732 27.9765 14C27.9765 6.26801 21.7137 0 13.9882 0C6.26275 0 0 6.26801 0 14C0 21.732 6.26275 28 13.9882 28Z" fill="#16293F"/>
<path opacity="0.81" d="M18.6221 27.223C19.5348 26.9032 20.402 26.4921 21.2235 26.0125V2.00927C20.402 1.50682 19.5348 1.11857 18.6221 0.798828V27.223Z" fill="url(#paint0_linear_2702_329)"/>
<path opacity="0.81" d="M6.77783 26.0119C7.59933 26.5144 8.46646 26.9026 9.37924 27.2224V0.775391C8.46646 1.09513 7.59933 1.50622 6.77783 1.98583C6.77783 1.98583 6.77783 26.0119 6.77783 26.0119Z" fill="url(#paint1_linear_2702_329)"/>
<path opacity="0.8" d="M23.6638 3.88281L18.21 10.4375L20.4006 11.3967L25.1927 5.61854C24.7363 4.97906 24.2114 4.4081 23.6638 3.88281Z" fill="url(#paint2_linear_2702_329)"/>
<path opacity="0.8" d="M2.78467 5.61854L7.87338 11.7621L10.064 10.8029L4.31356 3.88281C3.7659 4.43094 3.24105 5.0019 2.78467 5.61854Z" fill="url(#paint3_linear_2702_329)"/>
<path opacity="0.8" d="M0 14.002C0 14.5958 0.0456387 15.1667 0.114097 15.7149L6.77734 10.4163V6.89919V6.85352L0.136916 12.1292C0.0456387 12.7458 0 13.3625 0 14.002Z" fill="url(#paint4_linear_2702_329)"/>
<path opacity="0.8" d="M21.2222 10.4392L27.8854 15.7377C27.9539 15.1667 27.9995 14.5958 27.9995 14.002C27.9995 13.3625 27.9539 12.7458 27.8854 12.1292L21.2222 6.85352V10.4392Z" fill="url(#paint5_linear_2702_329)"/>
<path d="M14.0116 15.555L6.77783 6.85352V10.4392L12.5055 17.3592L9.35642 21.1504H12.3457L21.2225 10.4392V6.85352L14.0116 15.555Z" fill="white"/>
</g>
<defs>
<linearGradient id="paint0_linear_2702_329" x1="19.9228" y1="1.24767" x2="19.9228" y2="26.9253" gradientUnits="userSpaceOnUse">
<stop stop-color="#51BCC1"/>
<stop offset="0.0798218" stop-color="#4AA8B1" stop-opacity="0.9169"/>
<stop offset="0.2436" stop-color="#3A7487" stop-opacity="0.7466"/>
<stop offset="0.4751" stop-color="#1F2144" stop-opacity="0.5057"/>
<stop offset="0.4806" stop-color="#1E1F42" stop-opacity="0.5"/>
<stop offset="0.6323" stop-color="#4D2A5E" stop-opacity="0.6461"/>
<stop offset="0.7975" stop-color="#7A3578" stop-opacity="0.8051"/>
<stop offset="0.9256" stop-color="#963C89" stop-opacity="0.9284"/>
<stop offset="1" stop-color="#A03E8F"/>
</linearGradient>
<linearGradient id="paint1_linear_2702_329" x1="8.07853" y1="1.32758" x2="8.07853" y2="26.9256" gradientUnits="userSpaceOnUse">
<stop stop-color="#51BCC1"/>
<stop offset="0.0798218" stop-color="#4AA8B1" stop-opacity="0.9169"/>
<stop offset="0.2436" stop-color="#3A7487" stop-opacity="0.7466"/>
<stop offset="0.4751" stop-color="#1F2144" stop-opacity="0.5057"/>
<stop offset="0.4806" stop-color="#1E1F42" stop-opacity="0.5"/>
<stop offset="0.6323" stop-color="#4D2A5E" stop-opacity="0.6461"/>
<stop offset="0.7975" stop-color="#7A3578" stop-opacity="0.8051"/>
<stop offset="0.9256" stop-color="#963C89" stop-opacity="0.9284"/>
<stop offset="1" stop-color="#A03E8F"/>
</linearGradient>
<linearGradient id="paint2_linear_2702_329" x1="20.5268" y1="9.52863" x2="24.3106" y2="4.70228" gradientUnits="userSpaceOnUse">
<stop offset="0.1031" stop-color="#51BCC1"/>
<stop offset="0.1714" stop-color="#479EA9" stop-opacity="0.9108"/>
<stop offset="0.388" stop-color="#2A435F" stop-opacity="0.6279"/>
<stop offset="0.486" stop-color="#1E1F42" stop-opacity="0.5"/>
<stop offset="0.5915" stop-color="#3E2755" stop-opacity="0.6026"/>
<stop offset="0.7802" stop-color="#733374" stop-opacity="0.7862"/>
<stop offset="0.9221" stop-color="#943B88" stop-opacity="0.9243"/>
<stop offset="1" stop-color="#A03E8F"/>
</linearGradient>
<linearGradient id="paint3_linear_2702_329" x1="7.37156" y1="9.35547" x2="3.10489" y2="4.20758" gradientUnits="userSpaceOnUse">
<stop offset="0.1134" stop-color="#51BCC1"/>
<stop offset="0.1579" stop-color="#479EA9" stop-opacity="0.9108"/>
<stop offset="0.2988" stop-color="#2A435F" stop-opacity="0.6279"/>
<stop offset="0.3625" stop-color="#1E1F42" stop-opacity="0.5"/>
<stop offset="0.4799" stop-color="#3E2755" stop-opacity="0.6026"/>
<stop offset="0.6898" stop-color="#733374" stop-opacity="0.7862"/>
<stop offset="0.8478" stop-color="#943B88" stop-opacity="0.9243"/>
<stop offset="0.9344" stop-color="#A03E8F"/>
</linearGradient>
<linearGradient id="paint4_linear_2702_329" x1="7.27243" y1="8.42522" x2="-0.345517" y2="14.1071" gradientUnits="userSpaceOnUse">
<stop offset="0.1742" stop-color="#24CCD3"/>
<stop offset="0.2729" stop-color="#229EAC" stop-opacity="0.8754"/>
<stop offset="0.4776" stop-color="#1F4360" stop-opacity="0.6169"/>
<stop offset="0.5701" stop-color="#1E1F42" stop-opacity="0.5"/>
<stop offset="0.6584" stop-color="#3E2755" stop-opacity="0.6026"/>
<stop offset="0.8162" stop-color="#733374" stop-opacity="0.7862"/>
<stop offset="0.9349" stop-color="#943B88" stop-opacity="0.9243"/>
<stop offset="1" stop-color="#A03E8F"/>
</linearGradient>
<linearGradient id="paint5_linear_2702_329" x1="20.8223" y1="8.28021" x2="28.2261" y2="14.2305" gradientUnits="userSpaceOnUse">
<stop offset="0.1742" stop-color="#24CCD3"/>
<stop offset="0.2729" stop-color="#229EAC" stop-opacity="0.8754"/>
<stop offset="0.4776" stop-color="#1F4360" stop-opacity="0.6169"/>
<stop offset="0.5701" stop-color="#1E1F42" stop-opacity="0.5"/>
<stop offset="0.6584" stop-color="#3E2755" stop-opacity="0.6026"/>
<stop offset="0.8162" stop-color="#733374" stop-opacity="0.7862"/>
<stop offset="0.9349" stop-color="#943B88" stop-opacity="0.9243"/>
<stop offset="1" stop-color="#A03E8F"/>
</linearGradient>
<clipPath id="clip0_2702_329">
<rect width="122" height="28" fill="white"/>
</clipPath>
</defs>
</svg>
