<?xml version="1.0" encoding="utf-8"?><svg viewBox="0 0 502.66 502.66" xmlns="http://www.w3.org/2000/svg" xmlns:xlink="http://www.w3.org/1999/xlink"><style>:root>svg{display:none}:root>svg:target{display:block}</style><svg viewBox="0 0 27 28" id="add-photo" xmlns="http://www.w3.org/2000/svg"><g opacity=".8" stroke-width="1.5" stroke-linecap="round" stroke-linejoin="round"><path d="M14.625 5.281H9.3c-1.68 0-2.52 0-3.162.327A3 3 0 004.827 6.92C4.5 7.561 4.5 8.401 4.5 10.081v8.4c0 1.68 0 2.52.327 3.162a3 3 0 001.311 1.311c.642.327 1.482.327 3.162.327h8.4c1.68 0 2.52 0 3.162-.327a3 3 0 001.311-1.31c.327-.642.327-1.483.327-3.163v-5.325"/><path d="M4.5 18.781l4.918-4.918a1 1 0 011.414 0l3.793 3.793m0 0l3.23-3.23a1 1 0 011.415 0l3.23 3.23m-7.875 0l2.531 2.532m3.657-16.032V6.97m0 2.812V6.97m0 0H18m2.813 0h2.812"/></g></svg><svg viewBox="0 0 27 28" id="chevron-down" xmlns="http://www.w3.org/2000/svg"><path d="M6.75 10.906l6.75 6.75 6.75-6.75"/></svg><svg viewBox="0 0 24 25" id="chevron-up" xmlns="http://www.w3.org/2000/svg"><path d="M18 15.273l-6-6-6 6"/></svg><svg viewBox="0 0 502.664 502.664" id="icon" xmlns="http://www.w3.org/2000/svg"><path d="M153.821 358.226L0 274.337v-46.463l153.821-83.414v54.574L46.636 250.523l107.185 53.431v54.272zm26.273 29.358L282.103 115.08h32.227L212.084 387.584h-31.99zm168.749-29.358v-54.272l107.164-52.999-107.164-52.59v-53.927l153.821 83.522v46.183l-153.821 84.083z"/></svg><svg viewBox="0 0 24 24" id="search" xmlns="http://www.w3.org/2000/svg"><path d="M11 19a8 8 0 100-16 8 8 0 000 16zm10 2l-4.35-4.35" opacity=".8" stroke-width="1.5" stroke-linecap="round" stroke-linejoin="round"/></svg><svg viewBox="0 0 24 24" id="user" xmlns="http://www.w3.org/2000/svg"><path d="M20 21v-2a4 4 0 00-4-4H8a4 4 0 00-4 4v2m8-10a4 4 0 100-8 4 4 0 000 8z" opacity=".8" stroke-width="1.5" stroke-linecap="round" stroke-linejoin="round"/></svg></svg>